# xmcd
#
# Track frame offsets:
#	150
#	23927
#	44250
#	57231
#	72098
#	84258
#	106548
#	126065
#	142508
#	161734
#	183925
#	197113
#	212666
#	227166
#	241887
#	260010
#	280032
#	296888
#	312556
#
# Disc length: 4277 seconds
#
# Revision: 1
# Processed by: cddbd v1.5.2PL0 Copyright (c) Steve Scherf et al.
# Submitted via: audiograbber 1.83.01
#
DISCID=0b10b313
DTITLE=Various Artist - The Blues News Collection Vol. 2
DYEAR=2000
DGENRE=Blues
TTITLE0=Tommy Schnellers Extravaganza - Don't You Know My Name
TTITLE1=J.J. and The Shuffle Kings - Mad Cat
TTITLE2=Jessica Born and The Foolhouse Bluesband - Sam
TTITLE3=G-Town Boogies - Dark Blues
TTITLE4=Bluespower - At Your Service
TTITLE5=No Mercy - Kingfish
TTITLE6=4 On The Floor - Blue Midnight
TTITLE7=Thomas Stelzer Trio - Hold It
TTITLE8=Groove and Snoop Quartett - You Got To Move
TTITLE9=Cissy Strut - Leave Your Hands Off My Guitar
TTITLE10=Henning Pertiet - Lofty Train
TTITLE11=Harpface and The Heat - Ridiculous
TTITLE12=Williams Wetsox - Wer Hod D'Macht
TTITLE13=Blues Abroad - Ain't Nobody
TTITLE14=The Bootleggin' Hobos - Wuerzburg Hop
TTITLE15=Acoustic Blues Duo - Sweet To Mama
TTITLE16=Alex Olivari - It Ain't Over Yet
TTITLE17=Nina T. and Jan Hirte - Jan's Special
TTITLE18=Matchbox Bluesband - Blues News
EXTD=
EXTT0=
EXTT1=
EXTT2=
EXTT3=
EXTT4=
EXTT5=
EXTT6=
EXTT7=
EXTT8=
EXTT9=
EXTT10=
EXTT11=
EXTT12=
EXTT13=
EXTT14=
EXTT15=
EXTT16=
EXTT17=
EXTT18=
PLAYORDER=
